HIERARCHY
ROOT Hips
{
	OFFSET	0.00	0.00	0.00
	CHANNELS 6 Xposition Yposition Zposition Zrotation Xrotation Yrotation
	JOINT LeftUpperLeg
	{
		OFFSET	 0.000000	-0.151056	 0.000000
		CHANNELS 3 Zrotation Xrotation Yrotation
		JOINT LeftLowerLeg
		{
			OFFSET	 0.559505	 0.000000	 0.000000
			CHANNELS 3 Zrotation Xrotation Yrotation
			JOINT LeftFoot
			{
				OFFSET	 0.559505	 0.000000	 0.000000
				CHANNELS 3 Zrotation Xrotation Yrotation
				JOINT LeftToes
				{
					OFFSET	 0.170881	 0.000000	 0.250536
					CHANNELS 3 Zrotation Xrotation Yrotation
					End Site
					{
						OFFSET	 0.170881	 0.000000	 0.250536
					}
				}
			}
		}
	}
	JOINT RightUpperLeg
	{
		OFFSET	 0.000000	 0.151056	-0.000000
		CHANNELS 3 Zrotation Xrotation Yrotation
		JOINT RightLowerLeg
		{
			OFFSET	 0.559505	 0.000000	 0.000000
			CHANNELS 3 Zrotation Xrotation Yrotation
			JOINT RightFoot
			{
				OFFSET	 0.559505	 0.000000	 0.000000
				CHANNELS 3 Zrotation Xrotation Yrotation
				JOINT RightToes
				{
					OFFSET	 0.170881	 0.000000	 0.250536
					CHANNELS 3 Zrotation Xrotation Yrotation
					End Site
					{
						OFFSET	 0.170881	 0.000000	 0.250536
					}
				}
			}
		}
	}
	JOINT Spine
	{
		OFFSET	 0.128686	 0.000000	-0.000155
		CHANNELS 3 Zrotation Xrotation Yrotation
		JOINT Chest
		{
			OFFSET	 0.193962	 0.000000	-0.000154
			CHANNELS 3 Zrotation Xrotation Yrotation
			JOINT B_Spine2
			{
				OFFSET	 0.193962	 0.000000	-0.000154
				CHANNELS 3 Zrotation Xrotation Yrotation
				JOINT LeftShoulder
				{
					OFFSET	 0.193962	-0.057714	-0.000009
					CHANNELS 3 Zrotation Xrotation Yrotation
					JOINT LeftUpperArm
					{
						OFFSET	 0.279178	 0.000000	 0.000000
						CHANNELS 3 Zrotation Xrotation Yrotation
						JOINT LeftLowerArm
						{
							OFFSET	 0.418437	-0.000000	 0.000000
							CHANNELS 3 Zrotation Xrotation Yrotation
							JOINT LeftHand
							{
								OFFSET	 0.319113	 0.000000	-0.000000
								CHANNELS 3 Zrotation Xrotation Yrotation
								JOINT LeftThumbProximal
								{
									OFFSET	 0.141490	 0.101064	-0.000081
									CHANNELS 3 Zrotation Xrotation Yrotation
									JOINT LeftThumbIntermediate
									{
										OFFSET	 0.061423	 0.000000	 0.000000
										CHANNELS 3 Zrotation Xrotation Yrotation
										JOINT LeftThumbDistal
										{
											OFFSET	 0.061423	-0.000000	 0.000000
											CHANNELS 3 Zrotation Xrotation Yrotation
											End Site
											{
												OFFSET	 0.061423	-0.000000	 0.000000
											}
										}
									}
								}
								JOINT LeftIndexProximal
								{
									OFFSET	 0.205475	 0.059923	-0.034993
									CHANNELS 3 Zrotation Xrotation Yrotation
									JOINT LeftIndexIntermediate
									{
										OFFSET	 0.073708	-0.000000	 0.000000
										CHANNELS 3 Zrotation Xrotation Yrotation
										JOINT LeftIndexDistal
										{
											OFFSET	 0.073708	 0.000000	-0.000000
											CHANNELS 3 Zrotation Xrotation Yrotation
											End Site
											{
												OFFSET	 0.073708	 0.000000	-0.000000
											}
										}
									}
								}
								JOINT LeftMiddleProximal
								{
									OFFSET	 0.205475	 0.019497	-0.034961
									CHANNELS 3 Zrotation Xrotation Yrotation
									JOINT LeftMiddleIntermediate
									{
										OFFSET	 0.085992	-0.000000	 0.000000
										CHANNELS 3 Zrotation Xrotation Yrotation
										JOINT LeftMiddleDistal
										{
											OFFSET	 0.085993	 0.000000	 0.000000
											CHANNELS 3 Zrotation Xrotation Yrotation
											End Site
											{
												OFFSET	 0.085993	 0.000000	 0.000000
											}
										}
									}
								}
								JOINT LeftRingProximal
								{
									OFFSET	 0.205475	-0.020928	-0.034929
									CHANNELS 3 Zrotation Xrotation Yrotation
									JOINT LeftRingIntermediate
									{
										OFFSET	 0.073708	 0.000000	 0.000000
										CHANNELS 3 Zrotation Xrotation Yrotation
										JOINT LeftRingDistal
										{
											OFFSET	 0.073708	 0.000000	 0.000000
											CHANNELS 3 Zrotation Xrotation Yrotation
											End Site
											{
												OFFSET	 0.073708	 0.000000	 0.000000
											}
										}
									}
								}
								JOINT LeftLittleProximal
								{
									OFFSET	 0.205475	-0.061354	-0.034897
									CHANNELS 3 Zrotation Xrotation Yrotation
									JOINT LeftLittleIntermediate
									{
										OFFSET	 0.061423	-0.000000	 0.000000
										CHANNELS 3 Zrotation Xrotation Yrotation
										JOINT LeftLittleDistal
										{
											OFFSET	 0.061423	 0.000000	-0.000000
											CHANNELS 3 Zrotation Xrotation Yrotation
											End Site
											{
												OFFSET	 0.061423	 0.000000	-0.000000
											}
										}
									}
								}
							}
						}
					}
				}
				JOINT Neck
				{
					OFFSET	 0.193962	-0.000000	-0.000102
					CHANNELS 3 Zrotation Xrotation Yrotation
					JOINT Head
					{
						OFFSET	 0.128209	 0.000000	 0.000000
						CHANNELS 3 Zrotation Xrotation Yrotation
						End Site
						{
							OFFSET	 0.128209	 0.000000	 0.000000
						}
					}
				}
				JOINT RightShoulder
				{
					OFFSET	 0.193962	 0.057714	 0.000009
					CHANNELS 3 Zrotation Xrotation Yrotation
					JOINT RightUpperArm
					{
						OFFSET	 0.279177	 0.000000	 0.000000
						CHANNELS 3 Zrotation Xrotation Yrotation
						JOINT RightLowerArm
						{
							OFFSET	 0.418437	-0.000000	 0.000000
							CHANNELS 3 Zrotation Xrotation Yrotation
							JOINT RightHand
							{
								OFFSET	 0.319113	 0.000000	 0.000000
								CHANNELS 3 Zrotation Xrotation Yrotation
								JOINT RightThumbProximal
								{
									OFFSET	 0.141490	-0.101064	-0.000081
									CHANNELS 3 Zrotation Xrotation Yrotation
									JOINT RightThumbIntermediate
									{
										OFFSET	 0.061423	 0.000000	-0.000000
										CHANNELS 3 Zrotation Xrotation Yrotation
										JOINT RightThumbDistal
										{
											OFFSET	 0.061423	-0.000000	 0.000000
											CHANNELS 3 Zrotation Xrotation Yrotation
											End Site
											{
												OFFSET	 0.061423	-0.000000	 0.000000
											}
										}
									}
								}
								JOINT RightIndexProximal
								{
									OFFSET	 0.205475	-0.059923	-0.034993
									CHANNELS 3 Zrotation Xrotation Yrotation
									JOINT RightIndexIntermediate
									{
										OFFSET	 0.073708	 0.000000	 0.000000
										CHANNELS 3 Zrotation Xrotation Yrotation
										JOINT RightIndexDistal
										{
											OFFSET	 0.073708	 0.000000	-0.000000
											CHANNELS 3 Zrotation Xrotation Yrotation
											End Site
											{
												OFFSET	 0.073708	 0.000000	-0.000000
											}
										}
									}
								}
								JOINT RightMiddleProximal
								{
									OFFSET	 0.205475	-0.019498	-0.034961
									CHANNELS 3 Zrotation Xrotation Yrotation
									JOINT RightMiddleIntermediate
									{
										OFFSET	 0.085992	 0.000000	-0.000000
										CHANNELS 3 Zrotation Xrotation Yrotation
										JOINT RightMiddleDistal
										{
											OFFSET	 0.085992	-0.000000	 0.000000
											CHANNELS 3 Zrotation Xrotation Yrotation
											End Site
											{
												OFFSET	 0.085992	-0.000000	 0.000000
											}
										}
									}
								}
								JOINT RightRingProximal
								{
									OFFSET	 0.205475	 0.020928	-0.034929
									CHANNELS 3 Zrotation Xrotation Yrotation
									JOINT RightRingIntermediate
									{
										OFFSET	 0.073708	 0.000000	 0.000000
										CHANNELS 3 Zrotation Xrotation Yrotation
										JOINT RightRingDistal
										{
											OFFSET	 0.073708	 0.000000	-0.000000
											CHANNELS 3 Zrotation Xrotation Yrotation
											End Site
											{
												OFFSET	 0.073708	 0.000000	-0.000000
											}
										}
									}
								}
								JOINT RightLittleProximal
								{
									OFFSET	 0.205475	 0.061354	-0.034897
									CHANNELS 3 Zrotation Xrotation Yrotation
									JOINT RightLittleIntermediate
									{
										OFFSET	 0.061423	-0.000000	 0.000000
										CHANNELS 3 Zrotation Xrotation Yrotation
										JOINT RightLittleDistal
										{
											OFFSET	 0.061424	 0.000000	 0.000000
											CHANNELS 3 Zrotation Xrotation Yrotation
											End Site
											{
												OFFSET	 0.061424	 0.000000	 0.000000
											}
										}
									}
								}
							}
						}
					}
				}
			}
		}
	}
}
MOTION
Frames:    7
Frame Time: 0.01666667
 0.170373	-0.085129	 0.882954	 32.268120	 5.788990	-101.971600	-138.683000	-29.504080	-51.778140	-24.463660	-0.434498	 90.954090	-23.869380	 8.131086	-31.442910	-0.000000	 0.000083	-98.248180	 143.646000	 46.502450	-35.901740	-5.093157	 1.796566	 70.623700	 27.401870	-1.169151	 0.936507	 0.000008	 0.000064	-95.902020	-0.874065	-13.435490	-2.433395	-3.509380	-0.413826	-5.211683	-0.000000	-0.008579	-0.000003	 84.205080	 0.477324	 170.599100	 29.542460	-7.612860	-34.094520	 4.702611	-31.323140	 91.698360	 168.722200	-79.290490	 157.778900	 67.488540	 38.409690	-27.504590	-11.127680	 2.079790	-19.700750	-16.458500	 3.045842	-36.178750	 14.535320	-7.002538	-5.574577	 1.864479	-3.885288	-35.452070	 1.322453	-3.316960	-35.625870	 2.380761	-3.949764	 8.276468	 3.503043	-5.632531	-58.417640	 1.166077	-3.255698	-34.025840	-8.920271	 1.862609	-27.442800	 1.572756	-3.690725	-32.109280	 0.994291	-3.193992	-32.287350	-13.351940	 4.759902	-42.173930	 2.444164	-4.353688	-42.555160	 1.003357	-3.197066	-32.378590	-8.734879	-2.296317	-18.781990	-40.808810	 48.033340	 53.878070	-84.261480	-0.098424	 178.027800	-34.292150	-9.465798	-1.768985	-11.166890	 14.278680	 71.190300	-148.248700	 68.714440	 146.122600	-66.294110	-38.548860	-29.721410	 10.468850	-1.849906	-18.768060	 15.793800	-2.773119	-35.229940	-14.831830	 7.054056	-4.174231	-1.746561	 3.803786	-34.082870	-1.188895	 3.264384	-34.258500	-2.492459	 4.032958	 9.677087	-3.425574	 5.510526	-57.042040	-1.031223	 3.206698	-32.658780	 9.017612	-1.791967	-26.044560	-1.450154	 3.616058	-30.740840	-0.858072	 3.149246	-30.920590	 13.555720	-4.758598	-40.769000	-2.337315	 4.258214	-41.184270	-0.867166	 3.152075	-31.011860
 0.170364	-0.089435	 0.882344	 33.116940	 6.233557	-102.159400	-138.596600	-29.600850	-52.744280	-24.975500	-0.673748	 91.445310	-23.258490	 7.944752	-31.561230	-0.000000	 0.000083	-98.277060	 143.546900	 46.487100	-34.813280	-5.509032	 2.004939	 70.065250	 27.590130	-1.081865	 1.325409	 0.000008	 0.000064	-96.014460	-1.031906	-13.432880	-2.208883	-3.662601	-0.403823	-4.951558	-0.000000	-0.008579	-0.000003	 83.477420	 0.540618	 170.542800	 28.125510	-7.182563	-32.936220	 4.711939	-30.721080	 91.644950	 168.444000	-79.249680	 158.001900	 67.341380	 38.416930	-27.928750	-11.842380	 2.342671	-20.715080	-17.176130	 3.354777	-37.206960	 14.216500	-6.939019	-7.090369	 1.990218	-3.977070	-36.934750	 1.465564	-3.377590	-37.106580	 2.265025	-3.857235	 6.760361	 3.583473	-5.766587	-59.907630	 1.310781	-3.312304	-35.506230	-8.810423	 1.934840	-28.956820	 1.703533	-3.774989	-33.591190	 1.140597	-3.246174	-33.767410	-13.128290	 4.753436	-43.694850	 2.557775	-4.460416	-44.039690	 1.149582	-3.249475	-33.858680	-8.881603	-2.306624	-18.522910	-39.157810	 48.999770	 52.059090	-83.978000	-0.102841	 178.036500	-35.434190	-9.771819	-2.140332	-11.114390	 14.348950	 70.588200	-148.097200	 68.686760	 145.965300	-66.649630	-38.505260	-29.025830	 10.017600	-1.699434	-18.131070	 15.338540	-2.593637	-34.581920	-15.035570	 7.085158	-3.216937	-1.664712	 3.749491	-33.147340	-1.096974	 3.230213	-33.324160	-2.571460	 4.088523	 10.634500	-3.371059	 5.428319	-56.102160	-0.938408	 3.175114	-31.724610	 9.081820	-1.741632	-25.089050	-1.365343	 3.566645	-29.805780	-0.764375	 3.120490	-29.986640	 13.693470	-4.753653	-39.808770	-2.262686	 4.194159	-40.247620	-0.773512	 3.123170	-30.077890
 0.170371	-0.093843	 0.885245	 33.930790	 6.572835	-102.284700	-138.771300	-29.645620	-53.402310	-25.408250	-0.710742	 91.495090	-22.644030	 7.733803	-31.578890	-0.000000	 0.000083	-98.240560	 143.442600	 46.472220	-33.543370	-5.924553	 2.269727	 69.114010	 27.771020	-0.917266	 2.020280	 0.000008	 0.000064	-96.280380	-1.176200	-13.431180	-1.967768	-3.802724	-0.395472	-4.677907	-0.000000	-0.008579	-0.000003	 82.743660	 0.604734	 170.493500	 26.429460	-6.745491	-31.685260	 4.723176	-30.084200	 91.556790	 168.075500	-79.201420	 158.152200	 67.201210	 38.422160	-28.380740	-12.586060	 2.631522	-21.774200	-17.920930	 3.691582	-38.278560	 13.887170	-6.864259	-8.668424	 2.118641	-4.076100	-38.479260	 1.612931	-3.444653	-38.648970	 2.150150	-3.758345	 5.181804	 3.663528	-5.908407	-61.460030	 1.459915	-3.375218	-37.048280	-8.691308	 2.005285	-30.533780	 1.837409	-3.866326	-35.134880	 1.291521	-3.304526	-35.309120	-12.892550	 4.737873	-45.278560	 2.673155	-4.574681	-45.586200	 1.300416	-3.308060	-35.400390	-9.014806	-2.320093	-18.250420	-37.437610	 49.966310	 50.098580	-83.680430	-0.107216	 178.049400	-36.589790	-10.074400	-2.556960	-11.058650	 14.421910	 69.962870	-147.930100	 68.655190	 145.790500	-67.014330	-38.464380	-28.307610	 9.552114	-1.550006	-17.475190	 14.868750	-2.414606	-33.914710	-15.246290	 7.113747	-2.230655	-1.579499	 3.694969	-32.183730	-1.001730	 3.196585	-32.361770	-2.655038	 4.144586	 11.620910	-3.313510	 5.344590	-55.134180	-0.842287	 3.144165	-30.762410	 9.145957	-1.688069	-24.104820	-1.277156	 3.517201	-28.842640	-0.667388	 3.092469	-29.024620	 13.833980	-4.745210	-38.819580	-2.184741	 4.129466	-39.282930	-0.676568	 3.094994	-29.115850
 0.170444	-0.098326	 0.888633	 34.773480	 6.906157	-102.409700	-138.985700	-29.682270	-54.040840	-25.854520	-0.720055	 91.484730	-22.014060	 7.513013	-31.575110	-0.000000	 0.000083	-98.193670	 143.378800	 46.468940	-32.272060	-6.319319	 2.557350	 68.057490	 27.952500	-0.741466	 2.751089	 0.000008	 0.000064	-96.556520	-1.301162	-13.430440	-1.717755	-3.924108	-0.389009	-4.399727	-0.000000	-0.008579	-0.000003	 82.026600	 0.667484	 170.453400	 24.788150	-6.326509	-30.427020	 4.736081	-29.431970	 91.436930	 167.633800	-79.147300	 158.232200	 67.073610	 38.424820	-28.849150	-13.319210	 2.931829	-22.822220	-18.672210	 4.048353	-39.364400	 13.556850	-6.779721	-10.265400	 2.245936	-4.179870	-40.043370	 1.760278	-3.516573	-40.210810	 2.039893	-3.655836	 3.584082	 3.740655	-6.054180	-63.032410	 1.609164	-3.442988	-38.609770	-8.565899	 2.071411	-32.130450	 1.970433	-3.962455	-36.698100	 1.442706	-3.367725	-36.870250	-12.651040	 4.712663	-46.881530	 2.786824	-4.693518	-47.152390	 1.451503	-3.371493	-36.961540	-9.129134	-2.336332	-17.973420	-35.680100	 50.897210	 48.037140	-83.366300	-0.111634	 178.065400	-37.723400	-10.360000	-3.006016	-10.999470	 14.499040	 69.327960	-147.754600	 68.622590	 145.602500	-67.379880	-38.427360	-27.582600	 9.082747	-1.405252	-16.815030	 14.394910	-2.240307	-33.243240	-15.459320	 7.138994	-1.237221	-1.492784	 3.641524	-31.213440	-0.905268	 3.164341	-31.392670	-2.741535	 4.199807	 12.614470	-3.254148	 5.261276	-54.159590	-0.744990	 3.114635	-29.793510	 9.208422	-1.632392	-23.113670	-1.187536	 3.468917	-27.872800	-0.569269	 3.065900	-28.055910	 13.973960	-4.733302	-37.823340	-2.105172	 4.065659	-38.311530	-0.578490	 3.068268	-28.147120
 0.170351	-0.102841	 0.892639	 35.596730	 7.210834	-102.523400	-139.242600	-29.704170	-54.605370	-26.285060	-0.686648	 91.389160	-21.402130	 7.293549	-31.545520	-0.000000	 0.000083	-98.134710	 143.208700	 46.428560	-30.775030	-6.681286	 2.860056	 66.930790	 28.117540	-0.554947	 3.513761	 0.000008	 0.000064	-96.846760	-1.399816	-13.430540	-1.473542	-4.019968	-0.384634	-4.133239	-0.000000	-0.008579	-0.000003	 81.366620	 0.725183	 170.423900	 23.494240	-5.944431	-29.269720	 4.749853	-28.802700	 91.293540	 167.153600	-79.090780	 158.247200	 66.964440	 38.424910	-29.306620	-14.036880	 3.241008	-23.852130	-19.387640	 4.404315	-40.403340	 13.244030	-6.690621	-11.791750	 2.365001	-4.282326	-41.539300	 1.899329	-3.589087	-41.704560	 1.940017	-3.555716	 2.056719	 3.810653	-6.195526	-64.536590	 1.750139	-3.511581	-40.103180	-8.441715	 2.129665	-33.657300	 2.095175	-4.057753	-38.193200	 1.585645	-3.431995	-38.363290	-12.417880	 4.679683	-48.413890	 2.892476	-4.810042	-48.650460	 1.594345	-3.435986	-38.454610	-9.218145	-2.354162	-17.708110	-33.981030	 51.738650	 45.991410	-83.048980	-0.115934	 178.082700	-38.755560	-10.617660	-3.457014	-10.945500	 14.570510	 68.717080	-147.577900	 68.584100	 145.418500	-67.726920	-38.395890	-26.889710	 8.634680	-1.272554	-16.185880	 13.942480	-2.079725	-32.603440	-15.663080	 7.159719	-0.289936	-1.409286	 3.591944	-30.288390	-0.812813	 3.135125	-30.468740	-2.826078	 4.251243	 13.561990	-3.196246	 5.182797	-53.230530	-0.651781	 3.088015	-28.869770	 9.266006	-1.577753	-22.168680	-1.101350	 3.424300	-26.948170	-0.475324	 3.042116	-27.132370	 14.105980	-4.718821	-36.873430	-2.028323	 4.006090	-37.385480	-0.484582	 3.044335	-27.223560
 0.170249	-0.107244	 0.897120	 36.393950	 7.486541	-102.625400	-139.535600	-29.711180	-55.092590	-26.697150	-0.611296	 91.214590	-20.812910	 7.078064	-31.493180	-0.000000	 0.000083	-98.064650	 143.037000	 46.382850	-29.259380	-7.012259	 3.177459	 65.744240	 28.264300	-0.357496	 4.309765	 0.000008	 0.000064	-97.152000	-1.471498	-13.431270	-1.239603	-4.089648	-0.382145	-3.883128	-0.000000	-0.008579	-0.000003	 80.772510	 0.776885	 170.404300	 22.332150	-5.598728	-28.186550	 4.764150	-28.207240	 91.131590	 166.654100	-79.033480	 158.209900	 66.874110	 38.422510	-29.745700	-14.704260	 3.542275	-24.813680	-20.057610	 4.752316	-41.380870	 12.953000	-6.599626	-13.226070	 2.474508	-4.381479	-42.946130	 2.028334	-3.660559	-43.109230	 1.851274	-3.459923	 0.621040	 3.873076	-6.330081	-65.951400	 1.881044	-3.579412	-41.507510	-8.321149	 2.179768	-35.092910	 2.210186	-4.150306	-39.599190	 1.718501	-3.495806	-39.767280	-12.196720	 4.640502	-49.854110	 2.989028	-4.922099	-50.059290	 1.727103	-3.500004	-39.858620	-9.281327	-2.373014	-17.459080	-32.367070	 52.480880	 43.998940	-82.728080	-0.120194	 178.100100	-39.638360	-10.855530	-3.895322	-10.908610	 14.623870	 68.136090	-147.394900	 68.525860	 145.254700	-68.051890	-38.369720	-26.236520	 8.212822	-1.152491	-15.594450	 13.522620	-1.935745	-32.010790	-15.855350	 7.176238	 0.601217	-1.330040	 3.546547	-29.418370	-0.725441	 3.109006	-29.599770	-2.907564	 4.298518	 14.453380	-3.140637	 5.109854	-52.356800	-0.563733	 3.064351	-28.000940	 9.318351	-1.524997	-21.279870	-1.019649	 3.383612	-26.078560	-0.386628	 3.021130	-26.263750	 14.228760	-4.702403	-35.979890	-1.955180	 3.951203	-36.514510	-0.395917	 3.023207	-26.354920
 0.170401	-0.111606	 0.902218	 37.206180	 7.750534	-102.722300	-139.873100	-29.704100	-55.529880	-27.113260	-0.491623	 90.959290	-20.217090	 6.856740	-31.417970	-0.000000	 0.000083	-97.980600	 143.054100	 46.394680	-28.034650	-7.358242	 3.537990	 64.460380	 28.360170	-0.127910	 5.223357	 0.000008	 0.000064	-97.516090	-1.516806	-13.432520	-1.007730	-4.133731	-0.381368	-3.641023	-0.000000	-0.008579	-0.000003	 80.225080	 0.824211	 170.392400	 21.316220	-5.272317	-27.150240	 4.779542	-27.626170	 90.944660	 166.127000	-78.973680	 158.128500	 66.796650	 38.418030	-30.180710	-15.349340	 3.846300	-25.746800	-20.707200	 5.103535	-42.333210	 12.672380	-6.504273	-14.622220	 2.578810	-4.480610	-44.316490	 2.152275	-3.733189	-44.477390	 1.769369	-3.365149	-0.776760	 3.930662	-6.462585	-67.329800	 2.006923	-3.648539	-42.875340	-8.200510	 2.224228	-36.491050	 2.320005	-4.243136	-40.968680	 1.846374	-3.561068	-41.134780	-11.980020	 4.594874	-51.256190	 3.080408	-5.033495	-51.431680	 1.854876	-3.565464	-41.226140	-9.319094	-2.393456	-17.218060	-30.782260	 53.148720	 41.989930	-82.383030	-0.124779	 178.117200	-40.490310	-11.071780	-4.342989	-10.868360	 14.682900	 67.561810	-147.220100	 68.471690	 145.087900	-68.368580	-38.347280	-25.596050	 7.799607	-1.039419	-15.015930	 13.097870	-1.794991	-31.412290	-16.043950	 7.189592	 1.473297	-1.251848	 3.503297	-28.567110	-0.639578	 3.084735	-28.749500	-2.988970	 4.343684	 15.325800	-3.085164	 5.039313	-51.502000	-0.477249	 3.042489	-27.150840	 9.367887	-1.472147	-20.410140	-0.939122	 3.345002	-25.227660	-0.299545	 3.001898	-25.413800	 14.347620	-4.683799	-35.105550	-1.882820	 3.898580	-35.662350	-0.308867	 3.003837	-25.504980
